<?xml version="1.0" encoding="utf-8"?>
<!-- Generator: Adobe Illustrator 16.0.0, SVG Export Plug-In . SVG Version: 6.00 Build 0)  -->
<!DOCTYPE svg PUBLIC "-//W3C//DTD SVG 1.1//EN" "http://www.w3.org/Graphics/SVG/1.1/DTD/svg11.dtd">
<svg version="1.1" id="Layer_1" xmlns="http://www.w3.org/2000/svg" xmlns:xlink="http://www.w3.org/1999/xlink" x="0px" y="0px"
	 width="388px" height="66px" viewBox="0 0 388 66" enable-background="new 0 0 388 66" xml:space="preserve">
<polygon fill="#FFFFFF" points="14.421,33.922 29.541,33.922 29.541,39.783 14.421,39.783 14.421,52.615 32.775,52.615 
	32.775,58.475 14.366,58.475 7.946,58.475 7.946,17.073 14.366,17.073 32.775,17.073 32.775,22.875 14.421,22.875 "/>
<polygon fill="#FFFFFF" points="71.134,58.473 54.729,39.725 54.729,58.473 48.254,58.473 48.254,17.074 54.729,17.074 
	54.729,34.146 68.008,17.074 76.155,17.074 60.975,36.992 79.221,58.473 "/>
<polygon fill="#FFFFFF" points="115.404,58.473 98.998,39.725 98.998,58.473 92.523,58.473 92.523,17.074 98.998,17.074 
	98.998,34.146 112.278,17.074 120.425,17.074 105.244,36.992 123.49,58.473 "/>
<polygon fill="#FFFFFF" points="190.054,33.922 205.174,33.922 205.174,39.783 190.054,39.783 190.054,58.475 183.58,58.475 
	183.58,17.073 190,17.073 208.468,17.073 208.468,22.875 190.054,22.875 "/>
<polygon fill="#FFFFFF" points="245.482,58.473 228.126,58.473 221.711,58.473 221.711,17.074 228.181,17.074 228.181,52.615 
	245.482,52.615 "/>
<path fill="#FFFFFF" d="M279.647,49.604h-14.729l-3.518,8.869h-7.142l18.021-43.296l17.965,43.296h-7.087L279.647,49.604z
	 M277.304,43.799l-5.021-12.61l-5.023,12.61H277.304z"/>
<polygon fill="#FFFFFF" points="334.017,58.473 334.017,36.488 321.073,55.795 308.07,36.488 308.07,58.473 301.601,58.473 
	301.601,15.176 321.073,44.189 340.546,15.176 340.546,58.473 "/>
<polygon fill="#FFFFFF" points="361.272,33.922 376.396,33.922 376.396,39.783 361.272,39.783 361.272,52.615 379.631,52.615 
	379.631,58.475 361.218,58.475 354.802,58.475 354.802,17.073 361.218,17.073 379.631,17.073 379.631,22.875 361.272,22.875 "/>
<g>
	<g>
		<defs>
			<path id="SVGID_1_" d="M157.34,19.323c0.905,1.656,1.958,3.261,3.007,4.441c1.45,1.641,5.413,7.741,4.599,14.068
				c-0.672,5.236-2.467,8.861-5.482,11.08c-2.444,1.801-4.361,2.99-8.569,3.123c-4.766,0.162-9.444-2.221-11.152-4.5
				c-1.923-2.564-4.394-6.654-3.657-12.531c0.571-4.561,3.779-8.355,5.778-10.054c0,0,1.648,4.633,3.895,8.671
				C149.735,27.093,157.34,19.323,157.34,19.323 M153.121,14.77c-1.039,1.271-2.275,2.638-3.282,3.807
				c-1.196,1.388-2.313,2.698-3.136,3.813c-0.171-1.373-0.661-2.504-0.875-4.156C145.525,15.876,145.95,14,145.95,14
				s-3.87,2.391-7.773,5.96c-1.57,1.437-2.568,2.479-3.312,3.396c-1.936,2.21-4.313,5.774-4.953,10.873
				c-0.77,6.094,0.822,11.666,4.848,17.039c3.08,4.108,9.619,6.998,15.729,6.998c0.199,0,0.403-0.007,0.604-0.011
				c5.955-0.188,9.104-2.157,12.059-4.332c4.395-3.233,7.073-8.379,7.965-15.295c1.075-8.35-3.529-16.072-6.116-18.991
				c-0.322-0.363-0.675-0.846-1.023-1.31c-0.179-0.271-0.355-0.54-0.596-0.858c-2.6-3.448-5.337-11.795-5.337-11.795
				C157.167,8.275,154.552,12.83,153.121,14.77"/>
		</defs>
		<clipPath id="SVGID_2_">
			<use xlink:href="#SVGID_1_"  overflow="visible"/>
		</clipPath>
		
			<linearGradient id="SVGID_3_" gradientUnits="userSpaceOnUse" x1="-327.8186" y1="135.7168" x2="-326.6177" y2="135.7168" gradientTransform="matrix(34.6253 0 0 34.6253 11480.5225 -4667.2617)">
			<stop  offset="0" style="stop-color:#FAA93D"/>
			<stop  offset="1" style="stop-color:#D92E36"/>
		</linearGradient>
		<rect x="129.144" y="5.673" clip-path="url(#SVGID_2_)" fill="url(#SVGID_3_)" width="43.048" height="52.591"/>
	</g>
</g>
</svg>
